 <svg
                        class="svg-icon h-7 w-7"
                        width="28"
                        height="28"
                        aria-hidden="true"
                        role="img"
                        focusable="false"
                        viewBox="0 0 128 128"
                        fill="none"
                        xmlns="http://www.w3.org/2000/svg"
                      >
                        <g clipPath="url(#clip0_47_429)">
                          <path
                            d="M64.031 0.969666C37.7123 0.969666 30.0151 0.996816 28.5189 1.12093C23.1179 1.56989 19.757 2.42029 16.0955 4.24326C13.2738 5.64443 11.0484 7.26863 8.8521 9.54541C4.85223 13.6975 2.42806 18.8057 1.55051 24.8778C1.12385 27.8256 0.999736 28.4268 0.974524 43.4838C0.964828 48.5028 0.974524 55.1081 0.974524 63.968C0.974524 90.2654 1.00361 97.9548 1.12967 99.4481C1.56602 104.704 2.39024 108.01 4.13564 111.627C7.4713 118.551 13.842 123.748 21.3472 125.687C23.946 126.356 26.8162 126.725 30.5009 126.899C32.0621 126.967 47.9743 127.016 63.8963 127.016C79.8182 127.016 95.7401 126.996 97.2625 126.919C101.529 126.718 104.007 126.385 106.746 125.678C114.3 123.729 120.554 118.609 123.957 111.588C125.669 108.059 126.537 104.626 126.929 99.645C127.015 98.559 127.051 81.2436 127.051 63.9515C127.051 46.6565 127.012 29.3732 126.927 28.2871C126.529 23.2255 125.661 19.8219 123.894 16.2245C122.445 13.2796 120.835 11.0804 118.498 8.83173C114.328 4.84834 109.227 2.42417 103.149 1.54759C100.204 1.1219 99.6178 0.995847 84.5492 0.969666H64.031Z"
                            fill="url(#paint0_radial_47_429)"
                          ></path>
                          <path
                            d="M64.031 0.969666C37.7123 0.969666 30.0151 0.996816 28.5189 1.12093C23.1179 1.56989 19.757 2.42029 16.0955 4.24326C13.2738 5.64443 11.0484 7.26863 8.8521 9.54541C4.85223 13.6975 2.42806 18.8057 1.55051 24.8778C1.12385 27.8256 0.999736 28.4268 0.974524 43.4838C0.964828 48.5028 0.974524 55.1081 0.974524 63.968C0.974524 90.2654 1.00361 97.9548 1.12967 99.4481C1.56602 104.704 2.39024 108.01 4.13564 111.627C7.4713 118.551 13.842 123.748 21.3472 125.687C23.946 126.356 26.8162 126.725 30.5009 126.899C32.0621 126.967 47.9743 127.016 63.8963 127.016C79.8182 127.016 95.7401 126.996 97.2625 126.919C101.529 126.718 104.007 126.385 106.746 125.678C114.3 123.729 120.554 118.609 123.957 111.588C125.669 108.059 126.537 104.626 126.929 99.645C127.015 98.559 127.051 81.2436 127.051 63.9515C127.051 46.6565 127.012 29.3732 126.927 28.2871C126.529 23.2255 125.661 19.8219 123.894 16.2245C122.445 13.2796 120.835 11.0804 118.498 8.83173C114.328 4.84834 109.227 2.42417 103.149 1.54759C100.204 1.1219 99.6178 0.995847 84.5492 0.969666H64.031Z"
                            fill="url(#paint1_radial_47_429)"
                          ></path>
                          <path
                            d="M64.0019 17.454C51.3613 17.454 49.7749 17.5093 44.8102 17.7352C39.8552 17.9621 36.473 18.7466 33.5136 19.8976C30.4524 21.0864 27.8556 22.6766 25.2685 25.2647C22.6795 27.8518 21.0893 30.4485 19.8966 33.5088C18.7427 36.4692 17.9572 39.8524 17.7342 44.8054C17.5122 49.7701 17.454 51.3575 17.454 63.9981C17.454 76.6386 17.5102 78.2202 17.7352 83.1849C17.9631 88.1399 18.7475 91.5221 19.8975 94.4815C21.0873 97.5427 22.6776 100.14 25.2656 102.727C27.8517 105.316 30.4485 106.91 33.5078 108.099C36.4692 109.25 39.8523 110.034 44.8064 110.261C49.7711 110.487 51.3565 110.542 63.9961 110.542C76.6376 110.542 78.2192 110.487 83.1839 110.261C88.1389 110.034 91.525 109.25 94.4863 108.099C97.5466 106.91 100.139 105.316 102.726 102.727C105.315 100.14 106.905 97.5427 108.098 94.4825C109.242 91.5221 110.027 88.1389 110.26 83.1858C110.483 78.2211 110.541 76.6386 110.541 63.9981C110.541 51.3575 110.483 49.7711 110.26 44.8064C110.027 39.8514 109.242 36.4692 108.098 33.5098C106.905 30.4485 105.315 27.8518 102.726 25.2647C100.137 22.6757 97.5476 21.0854 94.4834 19.8976C91.5162 18.7466 88.1321 17.9621 83.1771 17.7352C78.2124 17.5093 76.6318 17.454 63.9874 17.454H64.0019ZM59.8265 25.8416C61.0658 25.8397 62.4485 25.8416 64.0019 25.8416C76.4292 25.8416 77.9021 25.8862 82.8096 26.1093C87.3476 26.3168 89.8106 27.0751 91.4513 27.7121C93.6233 28.5557 95.1719 29.5642 96.7999 31.1932C98.429 32.8223 99.4374 34.3737 100.283 36.5458C100.92 38.1845 101.679 40.6475 101.886 45.1855C102.109 50.0921 102.157 51.5659 102.157 63.9874C102.157 76.4088 102.109 77.8827 101.886 82.7892C101.678 87.3273 100.92 89.7902 100.283 91.429C99.4394 93.601 98.429 95.1477 96.7999 96.7757C95.1709 98.4048 93.6243 99.4132 91.4513 100.257C89.8125 100.897 87.3476 101.653 82.8096 101.861C77.9031 102.084 76.4292 102.132 64.0019 102.132C51.5737 102.132 50.1008 102.084 45.1942 101.861C40.6562 101.651 38.1932 100.893 36.5516 100.256C34.3795 99.4123 32.8281 98.4038 31.199 96.7748C29.57 95.1457 28.5615 93.5981 27.716 91.4251C27.0789 89.7864 26.3197 87.3234 26.1131 82.7854C25.8901 77.8788 25.8455 76.4049 25.8455 63.9758C25.8455 51.5466 25.8901 50.0804 26.1131 45.1739C26.3206 40.6359 27.0789 38.1729 27.716 36.5322C28.5596 34.3602 29.57 32.8087 31.199 31.1797C32.8281 29.5506 34.3795 28.5422 36.5516 27.6966C38.1923 27.0566 40.6562 26.3003 45.1942 26.0918C49.4879 25.8979 51.1519 25.8397 59.8265 25.83V25.8416ZM88.8467 33.5699C85.7632 33.5699 83.2614 36.0687 83.2614 39.1532C83.2614 42.2368 85.7632 44.7385 88.8467 44.7385C91.9303 44.7385 94.432 42.2368 94.432 39.1532C94.432 36.0697 91.9303 33.5679 88.8467 33.5679V33.5699ZM64.0019 40.0957C50.8018 40.0957 40.0996 50.798 40.0996 63.9981C40.0996 77.1981 50.8018 87.8955 64.0019 87.8955C77.202 87.8955 87.9003 77.1981 87.9003 63.9981C87.9003 50.798 77.202 40.0957 64.0019 40.0957ZM64.0019 48.4834C72.5699 48.4834 79.5166 55.4291 79.5166 63.9981C79.5166 72.566 72.5699 79.5127 64.0019 79.5127C55.4329 79.5127 48.4872 72.566 48.4872 63.9981C48.4872 55.4291 55.4329 48.4834 64.0019 48.4834Z"
                            fill="white"
                          ></path>
                        </g>
                        <defs>
                          <radialGradient
                            id="paint0_radial_47_429"
                            cx="0"
                            cy="0"
                            r="1"
                            gradientUnits="userSpaceOnUse"
                            gradientTransform="translate(34.4605 136.724) rotate(-90) scale(124.921 116.218)"
                          >
                            <stop stop-color="#FFDD55"></stop>
                            <stop offset="0.1" stop-color="#FFDD55"></stop>
                            <stop offset="0.5" stop-color="#FF543E"></stop>
                            <stop offset="1" stop-color="#C837AB"></stop>
                          </radialGradient>
                          <radialGradient
                            id="paint1_radial_47_429"
                            cx="0"
                            cy="0"
                            r="1"
                            gradientUnits="userSpaceOnUse"
                            gradientTransform="translate(-20.1489 10.0498) rotate(78.6776) scale(55.8408 230.236)"
                          >
                            <stop stop-color="#3771C8"></stop>
                            <stop offset="0.128" stop-color="#3771C8"></stop>
                            <stop
                              offset="1"
                              stop-color="#6600FF"
                              stop-opacity="0"
                            ></stop>
                          </radialGradient>
                          <clipPath id="clip0_47_429">
                            <rect
                              width="128"
                              height="127.996"
                              fill="white"
                            ></rect>
                          </clipPath>
                        </defs>
                      </svg>