  <svg
                        className="svg-icon h-7 w-7"
                        width="28"
                        height="28"
                        aria-hidden="true"
                        role="img"
                        focusable="false"
                        viewBox="0 0 260 294"
                        fill="none"
                        xmlns="http://www.w3.org/2000/svg"
                      >
                        <path
                          fillRule="evenodd"
                          clipRule="evenodd"
                          d="M130.059 67.7882C143.847 60.8945 160.576 57.1406 175.889 55.8133L193.083 54.3177C211.932 52.6933 230.791 53.6838 249.65 53.6838H260V64.0343C260 109.963 260 155.911 260 201.849V207.128C260 254.552 221.223 293.33 173.779 293.33H0V53.6838H10.3406C29.229 53.6838 48.0183 52.4457 66.8968 53.9116L84.1013 55.2092C100.434 56.4373 115.39 60.4092 130.059 67.7882Z"
                          fill="#4D4C4B"
                        ></path>
                        <path
                          fillRule="evenodd"
                          clipRule="evenodd"
                          d="M10.3406 64.0343V182.089V201.849V207.128V282.999H86.1912H98.1166H173.779C215.518 282.999 249.65 248.847 249.65 207.128V201.849C249.65 156.178 249.65 111.627 249.65 64.0343C231.524 64.0343 212.368 63.5886 193.985 64.6286L176.78 66.1143C159.942 68.1547 142.906 72.0869 130 79.5353C116.064 71.4827 100.87 67.4812 83.3189 65.52L66.1143 64.2126C47.3547 63.341 28.1196 64.0343 10.3406 64.0343Z"
                          fill="#5FB74E"
                        ></path>
                        <path
                          fillRule="evenodd"
                          clipRule="evenodd"
                          d="M31.7944 282.999H86.1914H98.1167H173.779C192.271 282.999 209.258 276.293 222.441 265.21C207.039 229.404 171.442 204.345 129.99 204.345C81.9719 204.345 41.8081 237.982 31.7944 282.999Z"
                          fill="#89C45F"
                        ></path>
                        <path
                          fillRule="evenodd"
                          clipRule="evenodd"
                          d="M130 282.999L174.67 282.335C192.905 282.335 209.515 275.897 222.451 265.22C239.101 251.452 249.65 230.613 249.65 207.128V201.849C249.65 156.178 249.65 111.627 249.65 64.0343C231.524 64.0343 212.368 63.5886 193.985 64.6286L176.78 66.1143C159.942 68.1547 142.906 72.0868 130 79.5352V282.999Z"
                          fill="#4A9E4B"
                        ></path>
                        <path
                          fillRule="evenodd"
                          clipRule="evenodd"
                          d="M130 282.999H174.056C192.549 282.999 209.258 276.293 222.451 265.22C207.218 229.81 170.847 204.91 130 204.365V282.999Z"
                          fill="#5FB74E"
                        ></path>
                        <path
                          fillRule="evenodd"
                          clipRule="evenodd"
                          d="M193.985 57.4575C190.696 25.168 163.399 0 130.267 0C97.1459 0 69.8682 24.9501 66.1143 57.0613L83.3188 58.3688C86.3596 35.1817 106.12 17.2442 130.198 17.2442C154.267 17.2442 174.205 35.4789 176.78 58.9432L193.985 57.4575Z"
                          fill="#4D4C4B"
                        ></path>
                        <path
                          fillRule="evenodd"
                          clipRule="evenodd"
                          d="M157.981 214.438C150.483 222.372 142.995 230.296 135.507 238.239L129.99 244.083L124.483 238.239C116.995 230.315 109.507 222.372 102.009 214.438L98.1365 210.318L100.969 205.435C106.981 195.064 118.223 189.488 129.99 189.488C141.777 189.488 153.009 195.064 159.021 205.435L161.864 210.318L157.981 214.438Z"
                          fill="#4D4C4B"
                        ></path>
                        <path
                          fillRule="evenodd"
                          clipRule="evenodd"
                          d="M152.464 209.238C144.986 217.172 137.478 225.096 129.99 233.039C122.502 225.096 115.014 217.172 107.516 209.238C112.251 201.087 121.135 197.055 129.99 197.065C138.855 197.055 147.73 201.087 152.464 209.238Z"
                          fill="#FDF8B4"
                        ></path>
                        <path
                          fillRule="evenodd"
                          clipRule="evenodd"
                          d="M152.464 209.238C144.986 217.172 137.478 225.096 129.99 233.039V197.065C138.855 197.055 147.729 201.087 152.464 209.238Z"
                          fill="#FCD066"
                        ></path>
                        <path
                          fillRule="evenodd"
                          clipRule="evenodd"
                          d="M73.84 93.8773C107.407 93.8773 134.635 121.115 134.635 154.663C134.635 188.23 107.407 215.458 73.84 215.458C40.2727 215.458 13.0544 188.23 13.0544 154.663C13.0544 121.115 40.2727 93.8773 73.84 93.8773Z"
                          fill="#4D4C4B"
                        ></path>
                        <path
                          fillRule="evenodd"
                          clipRule="evenodd"
                          d="M73.8401 104.218C96.829 104.218 116.242 119.61 122.314 140.648C116.242 161.675 96.829 177.067 73.8401 177.067C50.8412 177.067 31.4576 161.675 25.3761 140.648C31.4576 119.61 50.8412 104.218 73.8401 104.218Z"
                          fill="#FEFEFE"
                        ></path>
                        <path
                          fillRule="evenodd"
                          clipRule="evenodd"
                          d="M186.15 93.8773C219.717 93.8773 246.936 121.115 246.936 154.663C246.936 188.23 219.717 215.458 186.15 215.458C152.583 215.458 125.355 188.25 125.355 154.663C125.355 121.115 152.583 93.8773 186.15 93.8773Z"
                          fill="#4D4C4B"
                        ></path>
                        <path
                          fillRule="evenodd"
                          clipRule="evenodd"
                          d="M186.15 104.218C214.002 104.218 236.595 126.811 236.595 154.663C236.595 182.525 214.002 205.118 186.15 205.118C158.288 205.118 135.705 182.525 135.705 154.663C135.705 126.811 158.288 104.218 186.15 104.218Z"
                          fill="#EEEFEE"
                        ></path>
                        <path
                          fillRule="evenodd"
                          clipRule="evenodd"
                          d="M186.15 104.218C209.139 104.218 228.543 119.61 234.614 140.648C228.543 161.675 209.139 177.067 186.15 177.067C163.151 177.067 143.748 161.675 137.666 140.648C143.748 119.61 163.151 104.218 186.15 104.218Z"
                          fill="#FEFEFE"
                        ></path>
                        <path
                          fillRule="evenodd"
                          clipRule="evenodd"
                          d="M80.1791 123.294C98.176 123.294 112.766 137.884 112.766 155.851C112.766 173.858 98.176 188.448 80.1791 188.448C62.1821 188.448 47.5924 173.858 47.5924 155.851C47.5924 149.859 49.2267 144.243 52.0594 139.41C54.3871 145.164 60.013 149.205 66.6095 149.205C75.2762 149.205 82.3086 142.193 82.3086 133.526C82.3086 129.624 80.8823 126.058 78.5349 123.324C79.0796 123.294 79.6343 123.294 80.1791 123.294Z"
                          fill="#4D4C4B"
                        ></path>
                        <path
                          fillRule="evenodd"
                          clipRule="evenodd"
                          d="M179.801 123.294C197.808 123.294 212.388 137.884 212.388 155.851C212.388 173.858 197.808 188.448 179.791 188.448C161.814 188.448 147.224 173.858 147.224 155.851C147.224 149.859 148.849 144.243 151.672 139.41C154.009 145.164 159.645 149.205 166.242 149.205C174.898 149.205 181.921 142.193 181.921 133.526C181.921 129.624 180.514 126.058 178.167 123.324C178.712 123.294 179.247 123.294 179.801 123.294Z"
                          fill="#4D4C4B"
                        ></path>
                      </svg>