<svg width="4546" height="1222" viewBox="0 0 4546 1222" fill="none" xmlns="http://www.w3.org/2000/svg">
<path d="M741.793 849.582C744.411 847.4 861.251 626.128 872.65 604.535C873.294 603.315 874.099 602.401 875.178 601.541L1498.43 104.899C1500.2 103.488 1502.4 102.72 1504.66 102.72H1983.12C1990.12 102.72 1994.95 109.73 1992.46 116.274L1754.74 741.403C1754.46 742.128 1754.09 742.831 1753.66 743.473C1710.15 807.432 1678.58 833.687 1601.91 849.379C1601.26 849.513 1600.58 849.582 1599.91 849.582H1294.38C1287.19 849.582 1282.35 842.232 1285.19 835.632L1380.21 614.621C1380.44 614.109 1380.62 613.564 1380.75 613.022C1388.25 581.712 1383.29 573.333 1356.45 578.071C1354.81 578.361 1353.27 579.094 1351.99 580.157L1029 847.317C1027.23 848.782 1025.06 849.592 1022.76 849.609C990.062 849.862 739.221 851.727 741.793 849.582Z" fill="#FEFEFE"/>
<path d="M543.857 83.2301H1110.78C1118.43 83.2301 1123.25 91.482 1119.48 98.1482L951.001 396.43C949.227 399.57 945.901 401.512 942.294 401.512H499.371C454.996 397.538 423.374 437.987 419.239 523.678C418.971 529.245 423.441 533.866 429.014 533.918L838.65 537.711C839.478 537.718 840.318 537.831 841.117 538.05C866.87 545.115 869.562 555.393 862.657 578.944C862.469 579.583 862.23 580.176 861.916 580.763C853.13 597.208 719.509 847.366 719.509 849.583C719.509 851.661 233.89 849.975 142.42 849.639C135.343 849.613 130.518 842.529 133.176 835.97C205.671 657.065 348.985 304.386 384.029 221.963C419.984 137.393 469.79 83.2301 543.857 83.2301Z" fill="#FEFEFE"/>
<path d="M2221.57 112.582H2088.28C2084.16 112.582 2080.46 115.112 2078.96 118.955L1796.64 844.309C1752.39 953.002 1689.01 949.906 1581.55 949.792H103.893C99.8563 949.792 96.2157 952.218 94.6626 955.944L5.77344 1169.15C3.02718 1175.74 7.86675 1183 15.0034 1183H1669.83C1758.75 1171.99 1852.14 1127.51 1888.14 1040.83L2230.94 126.091C2233.39 119.554 2228.55 112.582 2221.57 112.582Z" fill="#FEFEFE"/>
<path d="M2490.7 565.6C2446.33 565.6 2411.32 552.583 2385.65 526.55C2359.98 500.15 2347.15 464.033 2347.15 418.2C2347.15 374.567 2355.4 336.25 2371.9 303.25C2388.77 270.25 2412.6 244.767 2443.4 226.8C2474.2 208.833 2509.95 199.85 2550.65 199.85C2563.85 199.85 2578.33 200.95 2594.1 203.15C2610.23 204.983 2623.98 207 2635.35 209.2C2647.08 211.033 2654.6 212.317 2657.9 213.05L2660.1 220.2C2659.37 222.767 2657.53 228.633 2654.6 237.8C2651.67 246.967 2648.18 259.25 2644.15 274.65C2640.12 289.683 2636.45 305.633 2633.15 322.5L2582 325.8C2582.37 322.867 2583.28 317.183 2584.75 308.75C2586.22 300.317 2586.95 293.9 2586.95 289.5C2586.95 263.467 2568.43 250.45 2531.4 250.45C2499.87 250.45 2475.12 264.017 2457.15 291.15C2439.18 318.283 2430.2 356.967 2430.2 407.2C2430.2 442.4 2436.62 469.533 2449.45 488.6C2462.28 507.3 2480.62 516.65 2504.45 516.65C2524.25 516.65 2540.02 510.783 2551.75 499.05C2563.85 486.95 2573.93 467.15 2582 439.65L2633.7 435.8C2631.87 442.033 2628.2 455.783 2622.7 477.05C2617.57 498.317 2613.53 518.3 2610.6 537L2605.1 543.6C2605.1 543.967 2599.42 546.167 2588.05 550.2C2576.68 553.867 2562.38 557.35 2545.15 560.65C2528.28 563.95 2510.13 565.6 2490.7 565.6ZM2979.04 487.5C2981.24 500.7 2984.91 510.05 2990.04 515.55C2995.54 521.05 3004.16 524.533 3015.89 526L3018.09 529.3L3010.39 560.65C3005.62 560.283 2996.82 559.917 2983.99 559.55C2971.52 559.183 2958.69 559 2945.49 559C2926.79 559 2908.46 559.55 2890.49 560.65C2872.52 562.117 2860.97 563.033 2855.84 563.4L2853.64 559L2859.69 527.65C2877.66 526.183 2889.57 523.983 2895.44 521.05C2901.31 517.75 2904.24 512.067 2904.24 504C2904.24 501.433 2904.06 498.867 2903.69 496.3C2903.32 493.367 2902.96 490.617 2902.59 488.05L2897.09 444.05L2849.24 443.5C2843.37 443.5 2826.14 444.6 2797.54 446.8L2779.39 490.8C2775.72 499.6 2773.89 506.383 2773.89 511.15C2773.89 516.283 2775.54 520.133 2778.84 522.7C2782.51 524.9 2788.01 526 2795.34 526H2818.99L2820.64 529.3L2813.49 562.3C2808.72 561.933 2798.27 561.2 2782.14 560.1C2766.01 559.367 2750.79 559 2736.49 559C2721.82 559 2708.44 559.183 2696.34 559.55C2684.24 559.917 2676.17 560.283 2672.14 560.65L2680.39 525.45C2689.19 523.983 2696.52 520.5 2702.39 515C2708.62 509.5 2714.49 500.517 2719.99 488.05L2847.59 209.2L2930.64 199.85L2936.14 203.15C2939.07 223.683 2945.12 266.217 2954.29 330.75C2963.46 394.917 2971.71 447.167 2979.04 487.5ZM2853.64 402.25C2864.64 402.25 2877.84 401.517 2893.24 400.05L2877.84 276.3H2870.14L2816.24 402.25H2853.64ZM3398.44 206.45C3416.04 206.45 3439.87 204.983 3469.94 202.05L3463.34 237.25C3449.77 239.083 3440.6 242.017 3435.84 246.05C3431.07 249.717 3427.77 256.867 3425.94 267.5C3416.77 321.4 3408.7 371.633 3401.74 418.2C3395.14 464.4 3391.84 491.9 3391.84 500.7C3391.84 509.5 3393.12 515.733 3395.69 519.4C3398.62 522.7 3403.57 524.35 3410.54 524.35C3418.24 524.35 3424.84 523.8 3430.34 522.7C3430.7 523.433 3431.07 524.167 3431.44 524.9C3431.8 525.267 3431.99 525.817 3431.99 526.55L3423.74 560.65C3394.04 559.55 3372.22 559 3358.29 559H3336.29L3298.89 559.55C3291.92 559.917 3283.3 560.1 3273.04 560.1L3281.84 525.45C3296.5 525.083 3306.77 521.417 3312.64 514.45C3318.87 507.483 3323.27 493.917 3325.84 473.75L3334.64 402.25L3276.89 401.7C3269.55 401.7 3259.1 402.25 3245.54 403.35C3231.97 404.45 3217.12 405.733 3200.99 407.2L3192.74 468.25L3191.09 482C3189.62 492.267 3188.89 499.417 3188.89 503.45C3188.89 506.383 3189.07 508.4 3189.44 509.5C3189.8 515.367 3191.09 519.4 3193.29 521.6C3195.85 523.8 3200.07 524.9 3205.94 524.9C3210.34 524.9 3216.94 524.35 3225.74 523.25L3227.94 526.55L3218.59 560.65C3193.29 559.55 3172.2 559 3155.34 559C3142.87 559 3128.02 559.55 3110.79 560.65C3093.55 561.75 3080.17 562.85 3070.64 563.95L3078.34 529.85C3090.07 527.283 3098.69 524.35 3104.19 521.05C3110.05 517.383 3114.27 512.067 3116.84 505.1C3119.77 497.767 3121.97 487.133 3123.44 473.2L3148.74 269.15C3149.47 262.55 3149.84 258.333 3149.84 256.5C3149.84 250.267 3148.55 246.05 3145.99 243.85C3143.79 241.65 3139.57 240.55 3133.34 240.55L3117.39 241.1L3114.64 236.7L3122.89 205.35L3186.14 206.45C3200.8 206.45 3227.2 204.983 3265.34 202.05L3258.19 237.25C3248.65 239.083 3241.69 241.283 3237.29 243.85C3232.89 246.05 3229.59 249.717 3227.39 254.85C3225.19 259.617 3223.17 267.317 3221.34 277.95L3208.69 357.7C3239.49 358.433 3262.22 358.8 3276.89 358.8C3294.12 358.8 3315.39 357.7 3340.69 355.5L3351.69 269.15C3352.42 263.283 3352.79 259.25 3352.79 257.05C3352.79 250.817 3351.5 246.6 3348.94 244.4C3346.37 241.833 3341.97 240.55 3335.74 240.55L3319.24 241.1L3317.04 236.7L3325.29 205.35L3398.44 206.45ZM3780.73 487.5C3782.93 500.7 3786.6 510.05 3791.73 515.55C3797.23 521.05 3805.85 524.533 3817.58 526L3819.78 529.3L3812.08 560.65C3807.31 560.283 3798.51 559.917 3785.68 559.55C3773.21 559.183 3760.38 559 3747.18 559C3728.48 559 3710.15 559.55 3692.18 560.65C3674.21 562.117 3662.66 563.033 3657.53 563.4L3655.33 559L3661.38 527.65C3679.35 526.183 3691.26 523.983 3697.13 521.05C3703 517.75 3705.93 512.067 3705.93 504C3705.93 501.433 3705.75 498.867 3705.38 496.3C3705.01 493.367 3704.65 490.617 3704.28 488.05L3698.78 444.05L3650.93 443.5C3645.06 443.5 3627.83 444.6 3599.23 446.8L3581.08 490.8C3577.41 499.6 3575.58 506.383 3575.58 511.15C3575.58 516.283 3577.23 520.133 3580.53 522.7C3584.2 524.9 3589.7 526 3597.03 526H3620.68L3622.33 529.3L3615.18 562.3C3610.41 561.933 3599.96 561.2 3583.83 560.1C3567.7 559.367 3552.48 559 3538.18 559C3523.51 559 3510.13 559.183 3498.03 559.55C3485.93 559.917 3477.86 560.283 3473.83 560.65L3482.08 525.45C3490.88 523.983 3498.21 520.5 3504.08 515C3510.31 509.5 3516.18 500.517 3521.68 488.05L3649.28 209.2L3732.33 199.85L3737.83 203.15C3740.76 223.683 3746.81 266.217 3755.98 330.75C3765.15 394.917 3773.4 447.167 3780.73 487.5ZM3655.33 402.25C3666.33 402.25 3679.53 401.517 3694.93 400.05L3679.53 276.3H3671.83L3617.93 402.25H3655.33ZM3980.77 255.4C3980.77 262.733 3984.99 280.7 3993.42 309.3C4001.85 337.9 4006.8 354.4 4008.27 358.8L4012.12 371.45H4017.07L4071.52 276.85C4078.49 265.117 4081.97 256.133 4081.97 249.9C4081.97 245.867 4080.14 242.933 4076.47 241.1C4073.17 239.267 4066.94 238.167 4057.77 237.8L4056.67 235.05L4064.37 204.25L4090.22 205.35C4109.29 206.083 4123.95 206.45 4134.22 206.45C4144.49 206.45 4155.3 206.267 4166.67 205.9C4178.04 205.167 4185.37 204.617 4188.67 204.25L4190.32 208.1L4182.62 240.55C4167.59 244.95 4155.3 252.1 4145.77 262C4136.24 271.533 4124.14 287.85 4109.47 310.95L4046.77 408.85C4041.64 416.917 4037.97 424.983 4035.77 433.05C4033.94 440.75 4031.55 454.683 4028.62 474.85L4026.97 487.5C4026.24 494.833 4025.87 499.783 4025.87 502.35C4025.87 510.417 4027.34 516.1 4030.27 519.4C4033.57 522.333 4039.25 523.8 4047.32 523.8C4053.55 523.8 4059.05 523.617 4063.82 523.25C4068.95 522.883 4072.25 522.517 4073.72 522.15L4075.37 524.9L4066.57 561.2C4059.97 560.833 4047.87 560.283 4030.27 559.55C4013.04 559.183 3996.17 559 3979.67 559C3967.2 559 3951.8 559.733 3933.47 561.2C3915.14 563.033 3903.04 564.317 3897.17 565.05L3905.42 529.3C3919.72 527.1 3930.35 524.35 3937.32 521.05C3944.29 517.383 3949.24 512.25 3952.17 505.65C3955.47 499.05 3957.85 489.333 3959.32 476.5L3961.52 458.9C3962.25 451.567 3962.62 446.617 3962.62 444.05C3962.62 432.317 3959.5 418.2 3953.27 401.7L3914.22 297.2C3907.62 278.5 3900.84 265.3 3893.87 257.6C3887.27 249.533 3876.27 244.033 3860.87 241.1L3859.22 238.35L3868.02 204.8C3873.15 204.8 3882.5 205.167 3896.07 205.9C3909.64 206.267 3922.84 206.45 3935.67 206.45C3947.04 206.45 3962.44 205.9 3981.87 204.8C4001.67 203.333 4014.69 202.417 4020.92 202.05L4023.12 207L4015.97 237.25C4002.4 238.35 3993.05 240.183 3987.92 242.75C3983.15 245.317 3980.77 249.533 3980.77 255.4ZM4456.74 487.5C4458.94 500.7 4462.6 510.05 4467.74 515.55C4473.24 521.05 4481.85 524.533 4493.59 526L4495.79 529.3L4488.09 560.65C4483.32 560.283 4474.52 559.917 4461.69 559.55C4449.22 559.183 4436.39 559 4423.19 559C4404.49 559 4386.15 559.55 4368.19 560.65C4350.22 562.117 4338.67 563.033 4333.54 563.4L4331.34 559L4337.39 527.65C4355.35 526.183 4367.27 523.983 4373.14 521.05C4379 517.75 4381.94 512.067 4381.94 504C4381.94 501.433 4381.75 498.867 4381.39 496.3C4381.02 493.367 4380.65 490.617 4380.29 488.05L4374.79 444.05L4326.94 443.5C4321.07 443.5 4303.84 444.6 4275.24 446.8L4257.09 490.8C4253.42 499.6 4251.59 506.383 4251.59 511.15C4251.59 516.283 4253.24 520.133 4256.54 522.7C4260.2 524.9 4265.7 526 4273.04 526H4296.69L4298.34 529.3L4291.19 562.3C4286.42 561.933 4275.97 561.2 4259.84 560.1C4243.7 559.367 4228.49 559 4214.19 559C4199.52 559 4186.14 559.183 4174.04 559.55C4161.94 559.917 4153.87 560.283 4149.84 560.65L4158.09 525.45C4166.89 523.983 4174.22 520.5 4180.09 515C4186.32 509.5 4192.19 500.517 4197.69 488.05L4325.29 209.2L4408.34 199.85L4413.84 203.15C4416.77 223.683 4422.82 266.217 4431.99 330.75C4441.15 394.917 4449.4 447.167 4456.74 487.5ZM4331.34 402.25C4342.34 402.25 4355.54 401.517 4370.94 400.05L4355.54 276.3H4347.84L4293.94 402.25H4331.34Z" fill="#FEFEFE"/>
<path d="M2571.45 960.5C2573.65 973.7 2577.32 983.05 2582.45 988.55C2587.95 994.05 2596.57 997.533 2608.3 999L2610.5 1002.3L2602.8 1033.65C2598.03 1033.28 2589.23 1032.92 2576.4 1032.55C2563.93 1032.18 2551.1 1032 2537.9 1032C2519.2 1032 2500.87 1032.55 2482.9 1033.65C2464.93 1035.12 2453.38 1036.03 2448.25 1036.4L2446.05 1032L2452.1 1000.65C2470.07 999.183 2481.98 996.983 2487.85 994.05C2493.72 990.75 2496.65 985.067 2496.65 977C2496.65 974.433 2496.47 971.867 2496.1 969.3C2495.73 966.367 2495.37 963.617 2495 961.05L2489.5 917.05L2441.65 916.5C2435.78 916.5 2418.55 917.6 2389.95 919.8L2371.8 963.8C2368.13 972.6 2366.3 979.383 2366.3 984.15C2366.3 989.283 2367.95 993.133 2371.25 995.7C2374.92 997.9 2380.42 999 2387.75 999H2411.4L2413.05 1002.3L2405.9 1035.3C2401.13 1034.93 2390.68 1034.2 2374.55 1033.1C2358.42 1032.37 2343.2 1032 2328.9 1032C2314.23 1032 2300.85 1032.18 2288.75 1032.55C2276.65 1032.92 2268.58 1033.28 2264.55 1033.65L2272.8 998.45C2281.6 996.983 2288.93 993.5 2294.8 988C2301.03 982.5 2306.9 973.517 2312.4 961.05L2440 682.2L2523.05 672.85L2528.55 676.15C2531.48 696.683 2537.53 739.217 2546.7 803.75C2555.87 867.917 2564.12 920.167 2571.45 960.5ZM2446.05 875.25C2457.05 875.25 2470.25 874.517 2485.65 873.05L2470.25 749.3H2462.55L2408.65 875.25H2446.05ZM2742.8 1038.6C2726.3 1038.6 2710.9 1036.95 2696.6 1033.65C2682.3 1030.72 2670.38 1027.42 2660.85 1023.75C2651.31 1020.08 2646.55 1018.07 2646.55 1017.7L2643.25 1010.55C2643.98 1007.98 2645.63 1002.12 2648.2 992.95C2650.76 983.783 2653.51 972.233 2656.45 958.3C2659.38 944.367 2661.76 930.617 2663.6 917.05L2707.6 913.2C2706.13 927.867 2705.4 937.583 2705.4 942.35C2705.4 961.05 2709.25 974.067 2716.95 981.4C2724.65 988.733 2737.85 992.4 2756.55 992.4C2774.88 992.4 2789.73 988 2801.1 979.2C2812.46 970.4 2818.15 958.85 2818.15 944.55C2818.15 933.183 2813.38 923.467 2803.85 915.4C2794.31 906.967 2780.01 897.617 2760.95 887.35C2742.25 877.45 2727.21 868.65 2715.85 860.95C2704.85 853.25 2695.31 843.533 2687.25 831.8C2679.18 820.067 2675.15 806.317 2675.15 790.55C2675.15 768.183 2681.56 748.2 2694.4 730.6C2707.23 712.633 2725.01 698.517 2747.75 688.25C2770.48 677.983 2796.15 672.85 2824.75 672.85C2840.15 672.85 2854.81 673.95 2868.75 676.15C2882.68 678.35 2893.86 680.55 2902.3 682.75C2911.1 684.95 2916.6 686.417 2918.8 687.15L2921.55 693.75C2919.71 698.883 2916.23 710.8 2911.1 729.5C2906.33 747.833 2901.93 767.45 2897.9 788.35L2857.75 791.65L2853.35 787.8C2853.71 785.6 2854.45 781.383 2855.55 775.15C2857.01 768.55 2857.75 763.05 2857.75 758.65C2857.75 745.45 2853.9 736.1 2846.2 730.6C2838.86 724.733 2826.95 721.8 2810.45 721.8C2794.31 721.8 2780.75 726.017 2769.75 734.45C2759.11 742.883 2753.8 753.517 2753.8 766.35C2753.8 775.517 2757.1 783.767 2763.7 791.1C2770.3 798.433 2780.01 805.767 2792.85 813.1C2797.25 815.667 2801.28 818.05 2804.95 820.25C2808.98 822.083 2812.46 823.917 2815.4 825.75C2833.36 835.65 2847.85 844.45 2858.85 852.15C2869.85 859.483 2879.2 868.833 2886.9 880.2C2894.96 891.567 2899 904.767 2899 919.8C2899 943.267 2892.58 963.983 2879.75 981.95C2866.91 999.917 2848.58 1013.85 2824.75 1023.75C2801.28 1033.65 2773.96 1038.6 2742.8 1038.6ZM3227.09 960.5C3229.29 973.7 3232.96 983.05 3238.09 988.55C3243.59 994.05 3252.21 997.533 3263.94 999L3266.14 1002.3L3258.44 1033.65C3253.67 1033.28 3244.87 1032.92 3232.04 1032.55C3219.57 1032.18 3206.74 1032 3193.54 1032C3174.84 1032 3156.51 1032.55 3138.54 1033.65C3120.57 1035.12 3109.02 1036.03 3103.89 1036.4L3101.69 1032L3107.74 1000.65C3125.71 999.183 3137.62 996.983 3143.49 994.05C3149.36 990.75 3152.29 985.067 3152.29 977C3152.29 974.433 3152.11 971.867 3151.74 969.3C3151.37 966.367 3151.01 963.617 3150.64 961.05L3145.14 917.05L3097.29 916.5C3091.42 916.5 3074.19 917.6 3045.59 919.8L3027.44 963.8C3023.77 972.6 3021.94 979.383 3021.94 984.15C3021.94 989.283 3023.59 993.133 3026.89 995.7C3030.56 997.9 3036.06 999 3043.39 999H3067.04L3068.69 1002.3L3061.54 1035.3C3056.77 1034.93 3046.32 1034.2 3030.19 1033.1C3014.06 1032.37 2998.84 1032 2984.54 1032C2969.87 1032 2956.49 1032.18 2944.39 1032.55C2932.29 1032.92 2924.22 1033.28 2920.19 1033.65L2928.44 998.45C2937.24 996.983 2944.57 993.5 2950.44 988C2956.67 982.5 2962.54 973.517 2968.04 961.05L3095.64 682.2L3178.69 672.85L3184.19 676.15C3187.12 696.683 3193.17 739.217 3202.34 803.75C3211.51 867.917 3219.76 920.167 3227.09 960.5ZM3101.69 875.25C3112.69 875.25 3125.89 874.517 3141.29 873.05L3125.89 749.3H3118.19L3064.29 875.25H3101.69ZM3471.8 742.15C3472.53 735.55 3472.9 731.333 3472.9 729.5C3472.9 723.267 3471.62 719.05 3469.05 716.85C3466.85 714.65 3462.82 713.55 3456.95 713.55C3452.55 713.55 3448.15 713.917 3443.75 714.65C3439.35 715.017 3436.23 715.2 3434.4 715.2L3432.75 710.8L3439.9 679.45H3505.35C3520.38 679.083 3536.15 678.35 3552.65 677.25C3569.52 675.783 3580.52 674.867 3585.65 674.5L3578.5 710.25C3566.77 712.45 3558.88 715.383 3554.85 719.05C3551.18 722.35 3548.43 729.5 3546.6 740.5C3542.2 765.067 3536.15 803.017 3528.45 854.35C3520.75 905.683 3514.88 946.017 3510.85 975.35C3506.08 1012.02 3493.62 1041.35 3473.45 1063.35C3453.28 1085.72 3423.58 1103.13 3384.35 1115.6L3372.25 1094.15L3373.9 1088.1C3390.03 1077.83 3402.5 1067.57 3411.3 1057.3C3420.47 1047.4 3427.43 1035.48 3432.2 1021.55C3437.33 1007.25 3441.37 988.367 3444.3 964.9L3471.8 742.15ZM3867.07 960.5C3869.27 973.7 3872.93 983.05 3878.07 988.55C3883.57 994.05 3892.18 997.533 3903.92 999L3906.12 1002.3L3898.42 1033.65C3893.65 1033.28 3884.85 1032.92 3872.02 1032.55C3859.55 1032.18 3846.72 1032 3833.52 1032C3814.82 1032 3796.48 1032.55 3778.52 1033.65C3760.55 1035.12 3749 1036.03 3743.87 1036.4L3741.67 1032L3747.72 1000.65C3765.68 999.183 3777.6 996.983 3783.47 994.05C3789.33 990.75 3792.27 985.067 3792.27 977C3792.27 974.433 3792.08 971.867 3791.72 969.3C3791.35 966.367 3790.98 963.617 3790.62 961.05L3785.12 917.05L3737.27 916.5C3731.4 916.5 3714.17 917.6 3685.57 919.8L3667.42 963.8C3663.75 972.6 3661.92 979.383 3661.92 984.15C3661.92 989.283 3663.57 993.133 3666.87 995.7C3670.53 997.9 3676.03 999 3683.37 999H3707.02L3708.67 1002.3L3701.52 1035.3C3696.75 1034.93 3686.3 1034.2 3670.17 1033.1C3654.03 1032.37 3638.82 1032 3624.52 1032C3609.85 1032 3596.47 1032.18 3584.37 1032.55C3572.27 1032.92 3564.2 1033.28 3560.17 1033.65L3568.42 998.45C3577.22 996.983 3584.55 993.5 3590.42 988C3596.65 982.5 3602.52 973.517 3608.02 961.05L3735.62 682.2L3818.67 672.85L3824.17 676.15C3827.1 696.683 3833.15 739.217 3842.32 803.75C3851.48 867.917 3859.73 920.167 3867.07 960.5ZM3741.67 875.25C3752.67 875.25 3765.87 874.517 3781.27 873.05L3765.87 749.3H3758.17L3704.27 875.25H3741.67ZM4045.11 728.4C4045.11 735.733 4049.32 753.7 4057.76 782.3C4066.19 810.9 4071.14 827.4 4072.61 831.8L4076.46 844.45H4081.41L4135.86 749.85C4142.82 738.117 4146.31 729.133 4146.31 722.9C4146.31 718.867 4144.47 715.933 4140.81 714.1C4137.51 712.267 4131.27 711.167 4122.11 710.8L4121.01 708.05L4128.71 677.25L4154.56 678.35C4173.62 679.083 4188.29 679.45 4198.56 679.45C4208.82 679.45 4219.64 679.267 4231.01 678.9C4242.37 678.167 4249.71 677.617 4253.01 677.25L4254.66 681.1L4246.96 713.55C4231.92 717.95 4219.64 725.1 4210.11 735C4200.57 744.533 4188.47 760.85 4173.81 783.95L4111.11 881.85C4105.97 889.917 4102.31 897.983 4100.11 906.05C4098.27 913.75 4095.89 927.683 4092.96 947.85L4091.31 960.5C4090.57 967.833 4090.21 972.783 4090.21 975.35C4090.21 983.417 4091.67 989.1 4094.61 992.4C4097.91 995.333 4103.59 996.8 4111.66 996.8C4117.89 996.8 4123.39 996.617 4128.16 996.25C4133.29 995.883 4136.59 995.517 4138.06 995.15L4139.71 997.9L4130.91 1034.2C4124.31 1033.83 4112.21 1033.28 4094.61 1032.55C4077.37 1032.18 4060.51 1032 4044.01 1032C4031.54 1032 4016.14 1032.73 3997.81 1034.2C3979.47 1036.03 3967.37 1037.32 3961.51 1038.05L3969.76 1002.3C3984.06 1000.1 3994.69 997.35 4001.66 994.05C4008.62 990.383 4013.57 985.25 4016.51 978.65C4019.81 972.05 4022.19 962.333 4023.66 949.5L4025.86 931.9C4026.59 924.567 4026.96 919.617 4026.96 917.05C4026.96 905.317 4023.84 891.2 4017.61 874.7L3978.56 770.2C3971.96 751.5 3965.17 738.3 3958.21 730.6C3951.61 722.533 3940.61 717.033 3925.21 714.1L3923.56 711.35L3932.36 677.8C3937.49 677.8 3946.84 678.167 3960.41 678.9C3973.97 679.267 3987.17 679.45 4000.01 679.45C4011.37 679.45 4026.77 678.9 4046.21 677.8C4066.01 676.333 4079.02 675.417 4085.26 675.05L4087.46 680L4080.31 710.25C4066.74 711.35 4057.39 713.183 4052.26 715.75C4047.49 718.317 4045.11 722.533 4045.11 728.4ZM4499.07 960.5C4501.27 973.7 4504.94 983.05 4510.07 988.55C4515.57 994.05 4524.19 997.533 4535.92 999L4538.12 1002.3L4530.42 1033.65C4525.65 1033.28 4516.85 1032.92 4504.02 1032.55C4491.55 1032.18 4478.72 1032 4465.52 1032C4446.82 1032 4428.49 1032.55 4410.52 1033.65C4392.55 1035.12 4381 1036.03 4375.87 1036.4L4373.67 1032L4379.72 1000.65C4397.69 999.183 4409.6 996.983 4415.47 994.05C4421.34 990.75 4424.27 985.067 4424.27 977C4424.27 974.433 4424.09 971.867 4423.72 969.3C4423.35 966.367 4422.99 963.617 4422.62 961.05L4417.12 917.05L4369.27 916.5C4363.4 916.5 4346.17 917.6 4317.57 919.8L4299.42 963.8C4295.75 972.6 4293.92 979.383 4293.92 984.15C4293.92 989.283 4295.57 993.133 4298.87 995.7C4302.54 997.9 4308.04 999 4315.37 999H4339.02L4340.67 1002.3L4333.52 1035.3C4328.75 1034.93 4318.3 1034.2 4302.17 1033.1C4286.04 1032.37 4270.82 1032 4256.52 1032C4241.85 1032 4228.47 1032.18 4216.37 1032.55C4204.27 1032.92 4196.2 1033.28 4192.17 1033.65L4200.42 998.45C4209.22 996.983 4216.55 993.5 4222.42 988C4228.65 982.5 4234.52 973.517 4240.02 961.05L4367.62 682.2L4450.67 672.85L4456.17 676.15C4459.1 696.683 4465.15 739.217 4474.32 803.75C4483.49 867.917 4491.74 920.167 4499.07 960.5ZM4373.67 875.25C4384.67 875.25 4397.87 874.517 4413.27 873.05L4397.87 749.3H4390.17L4336.27 875.25H4373.67Z" fill="#FEFEFE"/>
</svg>
