<svg width="271" height="76" viewBox="0 0 271 76" fill="none" xmlns="http://www.w3.org/2000/svg">
<path d="M46.1145 54.64C46.2697 54.5107 52.8829 41.9943 54.1098 39.6707C54.2387 39.4267 54.416 39.213 54.6318 39.041L92.7734 8.64754C93.1276 8.36534 93.567 8.21167 94.0198 8.21167H121.282C122.682 8.21167 123.649 9.61368 123.151 10.9226L109.141 47.7647C109.086 47.9097 109.013 48.0494 108.925 48.1774C106.293 52.0189 104.334 53.6315 99.7195 54.5992C99.589 54.6266 99.4542 54.64 99.3209 54.64H82.5586C81.1217 54.64 80.1536 53.1701 80.7212 51.8501L85.7561 40.1398C85.8002 40.0374 85.836 39.9311 85.8611 39.8225C86.2568 38.1073 86.0053 37.5549 84.6708 37.7101C84.3397 37.7486 84.0342 37.902 83.7773 38.1145L64.3462 54.1869C63.9919 54.48 63.5531 54.642 63.0932 54.6454C59.7843 54.6701 45.9639 54.7656 46.1145 54.64Z" fill="#912727"/>
<path d="M33.8102 7H66.6909C68.2221 7 69.1854 8.65038 68.4323 9.98362L59.5158 25.7695C59.1611 26.3975 58.4957 26.7859 57.7744 26.7859H31.0448C28.5384 26.5614 26.6865 28.6167 26.176 32.9899C26.0468 34.0971 26.9527 35.0194 28.0674 35.0297L51.964 35.251C52.1296 35.2525 52.2958 35.2733 52.4543 35.3212C53.8552 35.7453 54.032 36.3629 53.6661 37.6831C53.6306 37.8115 53.5803 37.9325 53.5175 38.05C52.5726 39.8191 44.7295 54.5061 44.7295 54.64C44.7295 54.7579 19.5967 54.6809 10.8757 54.6507C9.46035 54.6458 8.51295 53.2196 9.04476 51.908C13.7268 40.3603 21.8134 20.4722 23.8745 15.6242C26.1097 10.367 29.2059 7 33.8102 7Z" fill="#CD2A22"/>
<path d="M136.115 8.82471H130.76C129.935 8.82471 129.195 9.33082 128.896 10.0993L111.688 54.3122C108.936 61.0691 104.997 60.8766 98.3164 60.8695H7.37713C6.56988 60.8695 5.84177 61.3548 5.53114 62.0999L1.15469 72.5972C0.605437 73.9146 1.57335 75.3668 3.00068 75.3668H103.805C109.332 74.6821 115.137 71.9171 117.375 66.5287L137.987 11.5265C138.477 10.2191 137.511 8.82471 136.115 8.82471Z" fill="#15120C"/>
<path d="M160.82 31.36C158.4 31.36 156.49 30.65 155.09 29.23C153.69 27.79 152.99 25.82 152.99 23.32C152.99 20.94 153.44 18.85 154.34 17.05C155.26 15.25 156.56 13.86 158.24 12.88C159.92 11.9 161.87 11.41 164.09 11.41C164.81 11.41 165.6 11.47 166.46 11.59C167.34 11.69 168.09 11.8 168.71 11.92C169.35 12.02 169.76 12.09 169.94 12.13L170.06 12.52C170.02 12.66 169.92 12.98 169.76 13.48C169.6 13.98 169.41 14.65 169.19 15.49C168.97 16.31 168.77 17.18 168.59 18.1L165.8 18.28C165.82 18.12 165.87 17.81 165.95 17.35C166.03 16.89 166.07 16.54 166.07 16.3C166.07 14.88 165.06 14.17 163.04 14.17C161.32 14.17 159.97 14.91 158.99 16.39C158.01 17.87 157.52 19.98 157.52 22.72C157.52 24.64 157.87 26.12 158.57 27.16C159.27 28.18 160.27 28.69 161.57 28.69C162.65 28.69 163.51 28.37 164.15 27.73C164.81 27.07 165.36 25.99 165.8 24.49L168.62 24.28C168.52 24.62 168.32 25.37 168.02 26.53C167.74 27.69 167.52 28.78 167.36 29.8L167.06 30.16C167.06 30.18 166.75 30.3 166.13 30.52C165.51 30.72 164.73 30.91 163.79 31.09C162.87 31.27 161.88 31.36 160.82 31.36ZM187.457 27.1C187.577 27.82 187.777 28.33 188.057 28.63C188.357 28.93 188.827 29.12 189.467 29.2L189.587 29.38L189.167 31.09C188.907 31.07 188.427 31.05 187.727 31.03C187.047 31.01 186.347 31 185.627 31C184.607 31 183.607 31.03 182.627 31.09C181.647 31.17 181.017 31.22 180.737 31.24L180.617 31L180.947 29.29C181.927 29.21 182.577 29.09 182.897 28.93C183.217 28.75 183.377 28.44 183.377 28C183.377 27.86 183.367 27.72 183.347 27.58C183.327 27.42 183.307 27.27 183.287 27.13L182.987 24.73L180.377 24.7C180.057 24.7 179.117 24.76 177.557 24.88L176.567 27.28C176.367 27.76 176.267 28.13 176.267 28.39C176.267 28.67 176.357 28.88 176.537 29.02C176.737 29.14 177.037 29.2 177.437 29.2H178.727L178.817 29.38L178.427 31.18C178.167 31.16 177.597 31.12 176.717 31.06C175.837 31.02 175.007 31 174.227 31C173.427 31 172.697 31.01 172.037 31.03C171.377 31.05 170.937 31.07 170.717 31.09L171.167 29.17C171.647 29.09 172.047 28.9 172.367 28.6C172.707 28.3 173.027 27.81 173.327 27.13L180.287 11.92L184.817 11.41L185.117 11.59C185.277 12.71 185.607 15.03 186.107 18.55C186.607 22.05 187.057 24.9 187.457 27.1ZM180.617 22.45C181.217 22.45 181.937 22.41 182.777 22.33L181.937 15.58H181.517L178.577 22.45H180.617ZM210.333 11.77C211.293 11.77 212.593 11.69 214.233 11.53L213.873 13.45C213.133 13.55 212.633 13.71 212.373 13.93C212.113 14.13 211.933 14.52 211.833 15.1C211.333 18.04 210.893 20.78 210.513 23.32C210.153 25.84 209.973 27.34 209.973 27.82C209.973 28.3 210.043 28.64 210.183 28.84C210.343 29.02 210.613 29.11 210.993 29.11C211.413 29.11 211.773 29.08 212.073 29.02C212.093 29.06 212.113 29.1 212.133 29.14C212.153 29.16 212.163 29.19 212.163 29.23L211.713 31.09C210.093 31.03 208.903 31 208.143 31H206.943L204.903 31.03C204.523 31.05 204.053 31.06 203.493 31.06L203.973 29.17C204.773 29.15 205.333 28.95 205.653 28.57C205.993 28.19 206.233 27.45 206.373 26.35L206.853 22.45L203.703 22.42C203.303 22.42 202.733 22.45 201.993 22.51C201.253 22.57 200.443 22.64 199.563 22.72L199.113 26.05L199.023 26.8C198.943 27.36 198.903 27.75 198.903 27.97C198.903 28.13 198.913 28.24 198.933 28.3C198.953 28.62 199.023 28.84 199.143 28.96C199.283 29.08 199.513 29.14 199.833 29.14C200.073 29.14 200.433 29.11 200.913 29.05L201.033 29.23L200.523 31.09C199.143 31.03 197.993 31 197.073 31C196.393 31 195.583 31.03 194.643 31.09C193.703 31.15 192.973 31.21 192.453 31.27L192.873 29.41C193.513 29.27 193.983 29.11 194.283 28.93C194.603 28.73 194.833 28.44 194.973 28.06C195.133 27.66 195.253 27.08 195.333 26.32L196.713 15.19C196.753 14.83 196.773 14.6 196.773 14.5C196.773 14.16 196.703 13.93 196.563 13.81C196.443 13.69 196.213 13.63 195.873 13.63L195.003 13.66L194.853 13.42L195.303 11.71L198.753 11.77C199.553 11.77 200.993 11.69 203.073 11.53L202.683 13.45C202.163 13.55 201.783 13.67 201.543 13.81C201.303 13.93 201.123 14.13 201.003 14.41C200.883 14.67 200.773 15.09 200.673 15.67L199.983 20.02C201.663 20.06 202.903 20.08 203.703 20.08C204.643 20.08 205.803 20.02 207.183 19.9L207.783 15.19C207.823 14.87 207.843 14.65 207.843 14.53C207.843 14.19 207.773 13.96 207.633 13.84C207.493 13.7 207.253 13.63 206.913 13.63L206.013 13.66L205.893 13.42L206.343 11.71L210.333 11.77ZM231.185 27.1C231.305 27.82 231.505 28.33 231.785 28.63C232.085 28.93 232.555 29.12 233.195 29.2L233.315 29.38L232.895 31.09C232.635 31.07 232.155 31.05 231.455 31.03C230.775 31.01 230.075 31 229.355 31C228.335 31 227.335 31.03 226.355 31.09C225.375 31.17 224.745 31.22 224.465 31.24L224.345 31L224.675 29.29C225.655 29.21 226.305 29.09 226.625 28.93C226.945 28.75 227.105 28.44 227.105 28C227.105 27.86 227.095 27.72 227.075 27.58C227.055 27.42 227.035 27.27 227.015 27.13L226.715 24.73L224.105 24.7C223.785 24.7 222.845 24.76 221.285 24.88L220.295 27.28C220.095 27.76 219.995 28.13 219.995 28.39C219.995 28.67 220.085 28.88 220.265 29.02C220.465 29.14 220.765 29.2 221.165 29.2H222.455L222.545 29.38L222.155 31.18C221.895 31.16 221.325 31.12 220.445 31.06C219.565 31.02 218.735 31 217.955 31C217.155 31 216.425 31.01 215.765 31.03C215.105 31.05 214.665 31.07 214.445 31.09L214.895 29.17C215.375 29.09 215.775 28.9 216.095 28.6C216.435 28.3 216.755 27.81 217.055 27.13L224.015 11.92L228.545 11.41L228.845 11.59C229.005 12.71 229.335 15.03 229.835 18.55C230.335 22.05 230.785 24.9 231.185 27.1ZM224.345 22.45C224.945 22.45 225.665 22.41 226.505 22.33L225.665 15.58H225.245L222.305 22.45H224.345ZM242.097 14.44C242.097 14.84 242.327 15.82 242.787 17.38C243.247 18.94 243.517 19.84 243.597 20.08L243.807 20.77H244.077L247.047 15.61C247.427 14.97 247.617 14.48 247.617 14.14C247.617 13.92 247.517 13.76 247.317 13.66C247.137 13.56 246.797 13.5 246.297 13.48L246.237 13.33L246.657 11.65L248.067 11.71C249.107 11.75 249.907 11.77 250.467 11.77C251.027 11.77 251.617 11.76 252.237 11.74C252.857 11.7 253.257 11.67 253.437 11.65L253.527 11.86L253.107 13.63C252.287 13.87 251.617 14.26 251.097 14.8C250.577 15.32 249.917 16.21 249.117 17.47L245.697 22.81C245.417 23.25 245.217 23.69 245.097 24.13C244.997 24.55 244.867 25.31 244.707 26.41L244.617 27.1C244.577 27.5 244.557 27.77 244.557 27.91C244.557 28.35 244.637 28.66 244.797 28.84C244.977 29 245.287 29.08 245.727 29.08C246.067 29.08 246.367 29.07 246.627 29.05C246.907 29.03 247.087 29.01 247.167 28.99L247.257 29.14L246.777 31.12C246.417 31.1 245.757 31.07 244.797 31.03C243.857 31.01 242.937 31 242.037 31C241.357 31 240.517 31.04 239.517 31.12C238.517 31.22 237.857 31.29 237.537 31.33L237.987 29.38C238.767 29.26 239.347 29.11 239.727 28.93C240.107 28.73 240.377 28.45 240.537 28.09C240.717 27.73 240.847 27.2 240.927 26.5L241.047 25.54C241.087 25.14 241.107 24.87 241.107 24.73C241.107 24.09 240.937 23.32 240.597 22.42L238.467 16.72C238.107 15.7 237.737 14.98 237.357 14.56C236.997 14.12 236.397 13.82 235.557 13.66L235.467 13.51L235.947 11.68C236.227 11.68 236.737 11.7 237.477 11.74C238.217 11.76 238.937 11.77 239.637 11.77C240.257 11.77 241.097 11.74 242.157 11.68C243.237 11.6 243.947 11.55 244.287 11.53L244.407 11.8L244.017 13.45C243.277 13.51 242.767 13.61 242.487 13.75C242.227 13.89 242.097 14.12 242.097 14.44ZM268.058 27.1C268.178 27.82 268.378 28.33 268.658 28.63C268.958 28.93 269.428 29.12 270.068 29.2L270.188 29.38L269.768 31.09C269.508 31.07 269.028 31.05 268.328 31.03C267.648 31.01 266.948 31 266.228 31C265.208 31 264.208 31.03 263.228 31.09C262.248 31.17 261.618 31.22 261.338 31.24L261.218 31L261.548 29.29C262.528 29.21 263.178 29.09 263.498 28.93C263.818 28.75 263.978 28.44 263.978 28C263.978 27.86 263.968 27.72 263.948 27.58C263.928 27.42 263.908 27.27 263.888 27.13L263.588 24.73L260.978 24.7C260.658 24.7 259.718 24.76 258.158 24.88L257.168 27.28C256.968 27.76 256.868 28.13 256.868 28.39C256.868 28.67 256.958 28.88 257.138 29.02C257.338 29.14 257.638 29.2 258.038 29.2H259.328L259.418 29.38L259.028 31.18C258.768 31.16 258.198 31.12 257.318 31.06C256.438 31.02 255.608 31 254.828 31C254.028 31 253.298 31.01 252.638 31.03C251.978 31.05 251.538 31.07 251.318 31.09L251.768 29.17C252.248 29.09 252.648 28.9 252.968 28.6C253.308 28.3 253.628 27.81 253.928 27.13L260.888 11.92L265.418 11.41L265.718 11.59C265.878 12.71 266.208 15.03 266.708 18.55C267.208 22.05 267.658 24.9 268.058 27.1ZM261.218 22.45C261.818 22.45 262.538 22.41 263.378 22.33L262.538 15.58H262.118L259.178 22.45H261.218Z" fill="#15120C"/>
<path d="M162.57 60.1C162.69 60.82 162.89 61.33 163.17 61.63C163.47 61.93 163.94 62.12 164.58 62.2L164.7 62.38L164.28 64.09C164.02 64.07 163.54 64.05 162.84 64.03C162.16 64.01 161.46 64 160.74 64C159.72 64 158.72 64.03 157.74 64.09C156.76 64.17 156.13 64.22 155.85 64.24L155.73 64L156.06 62.29C157.04 62.21 157.69 62.09 158.01 61.93C158.33 61.75 158.49 61.44 158.49 61C158.49 60.86 158.48 60.72 158.46 60.58C158.44 60.42 158.42 60.27 158.4 60.13L158.1 57.73L155.49 57.7C155.17 57.7 154.23 57.76 152.67 57.88L151.68 60.28C151.48 60.76 151.38 61.13 151.38 61.39C151.38 61.67 151.47 61.88 151.65 62.02C151.85 62.14 152.15 62.2 152.55 62.2H153.84L153.93 62.38L153.54 64.18C153.28 64.16 152.71 64.12 151.83 64.06C150.95 64.02 150.12 64 149.34 64C148.54 64 147.81 64.01 147.15 64.03C146.49 64.05 146.05 64.07 145.83 64.09L146.28 62.17C146.76 62.09 147.16 61.9 147.48 61.6C147.82 61.3 148.14 60.81 148.44 60.13L155.4 44.92L159.93 44.41L160.23 44.59C160.39 45.71 160.72 48.03 161.22 51.55C161.72 55.05 162.17 57.9 162.57 60.1ZM155.73 55.45C156.33 55.45 157.05 55.41 157.89 55.33L157.05 48.58H156.63L153.69 55.45H155.73ZM171.916 64.36C171.016 64.36 170.176 64.27 169.396 64.09C168.616 63.93 167.966 63.75 167.446 63.55C166.926 63.35 166.666 63.24 166.666 63.22L166.486 62.83C166.526 62.69 166.616 62.37 166.756 61.87C166.896 61.37 167.046 60.74 167.206 59.98C167.366 59.22 167.496 58.47 167.596 57.73L169.996 57.52C169.916 58.32 169.876 58.85 169.876 59.11C169.876 60.13 170.086 60.84 170.506 61.24C170.926 61.64 171.646 61.84 172.666 61.84C173.666 61.84 174.476 61.6 175.096 61.12C175.716 60.64 176.026 60.01 176.026 59.23C176.026 58.61 175.766 58.08 175.246 57.64C174.726 57.18 173.946 56.67 172.906 56.11C171.886 55.57 171.066 55.09 170.446 54.67C169.846 54.25 169.326 53.72 168.886 53.08C168.446 52.44 168.226 51.69 168.226 50.83C168.226 49.61 168.576 48.52 169.276 47.56C169.976 46.58 170.946 45.81 172.186 45.25C173.426 44.69 174.826 44.41 176.386 44.41C177.226 44.41 178.026 44.47 178.786 44.59C179.546 44.71 180.156 44.83 180.616 44.95C181.096 45.07 181.396 45.15 181.516 45.19L181.666 45.55C181.566 45.83 181.376 46.48 181.096 47.5C180.836 48.5 180.596 49.57 180.376 50.71L178.186 50.89L177.946 50.68C177.966 50.56 178.006 50.33 178.066 49.99C178.146 49.63 178.186 49.33 178.186 49.09C178.186 48.37 177.976 47.86 177.556 47.56C177.156 47.24 176.506 47.08 175.606 47.08C174.726 47.08 173.986 47.31 173.386 47.77C172.806 48.23 172.516 48.81 172.516 49.51C172.516 50.01 172.696 50.46 173.056 50.86C173.416 51.26 173.946 51.66 174.646 52.06C174.886 52.2 175.106 52.33 175.306 52.45C175.526 52.55 175.716 52.65 175.876 52.75C176.856 53.29 177.646 53.77 178.246 54.19C178.846 54.59 179.356 55.1 179.776 55.72C180.216 56.34 180.436 57.06 180.436 57.88C180.436 59.16 180.086 60.29 179.386 61.27C178.686 62.25 177.686 63.01 176.386 63.55C175.106 64.09 173.616 64.36 171.916 64.36ZM198.332 60.1C198.452 60.82 198.652 61.33 198.932 61.63C199.232 61.93 199.702 62.12 200.342 62.2L200.462 62.38L200.042 64.09C199.782 64.07 199.302 64.05 198.602 64.03C197.922 64.01 197.222 64 196.502 64C195.482 64 194.482 64.03 193.502 64.09C192.522 64.17 191.892 64.22 191.612 64.24L191.492 64L191.822 62.29C192.802 62.21 193.452 62.09 193.772 61.93C194.092 61.75 194.252 61.44 194.252 61C194.252 60.86 194.242 60.72 194.222 60.58C194.202 60.42 194.182 60.27 194.162 60.13L193.862 57.73L191.252 57.7C190.932 57.7 189.992 57.76 188.432 57.88L187.442 60.28C187.242 60.76 187.142 61.13 187.142 61.39C187.142 61.67 187.232 61.88 187.412 62.02C187.612 62.14 187.912 62.2 188.312 62.2H189.602L189.692 62.38L189.302 64.18C189.042 64.16 188.472 64.12 187.592 64.06C186.712 64.02 185.882 64 185.102 64C184.302 64 183.572 64.01 182.912 64.03C182.252 64.05 181.812 64.07 181.592 64.09L182.042 62.17C182.522 62.09 182.922 61.9 183.242 61.6C183.582 61.3 183.902 60.81 184.202 60.13L191.162 44.92L195.692 44.41L195.992 44.59C196.152 45.71 196.482 48.03 196.982 51.55C197.482 55.05 197.932 57.9 198.332 60.1ZM191.492 55.45C192.092 55.45 192.812 55.41 193.652 55.33L192.812 48.58H192.392L189.452 55.45H191.492ZM211.68 48.19C211.72 47.83 211.74 47.6 211.74 47.5C211.74 47.16 211.67 46.93 211.53 46.81C211.41 46.69 211.19 46.63 210.87 46.63C210.63 46.63 210.39 46.65 210.15 46.69C209.91 46.71 209.74 46.72 209.64 46.72L209.55 46.48L209.94 44.77H213.51C214.33 44.75 215.19 44.71 216.09 44.65C217.01 44.57 217.61 44.52 217.89 44.5L217.5 46.45C216.86 46.57 216.43 46.73 216.21 46.93C216.01 47.11 215.86 47.5 215.76 48.1C215.52 49.44 215.19 51.51 214.77 54.31C214.35 57.11 214.03 59.31 213.81 60.91C213.55 62.91 212.87 64.51 211.77 65.71C210.67 66.93 209.05 67.88 206.91 68.56L206.25 67.39L206.34 67.06C207.22 66.5 207.9 65.94 208.38 65.38C208.88 64.84 209.26 64.19 209.52 63.43C209.8 62.65 210.02 61.62 210.18 60.34L211.68 48.19ZM233.24 60.1C233.36 60.82 233.56 61.33 233.84 61.63C234.14 61.93 234.61 62.12 235.25 62.2L235.37 62.38L234.95 64.09C234.69 64.07 234.21 64.05 233.51 64.03C232.83 64.01 232.13 64 231.41 64C230.39 64 229.39 64.03 228.41 64.09C227.43 64.17 226.8 64.22 226.52 64.24L226.4 64L226.73 62.29C227.71 62.21 228.36 62.09 228.68 61.93C229 61.75 229.16 61.44 229.16 61C229.16 60.86 229.15 60.72 229.13 60.58C229.11 60.42 229.09 60.27 229.07 60.13L228.77 57.73L226.16 57.7C225.84 57.7 224.9 57.76 223.34 57.88L222.35 60.28C222.15 60.76 222.05 61.13 222.05 61.39C222.05 61.67 222.14 61.88 222.32 62.02C222.52 62.14 222.82 62.2 223.22 62.2H224.51L224.6 62.38L224.21 64.18C223.95 64.16 223.38 64.12 222.5 64.06C221.62 64.02 220.79 64 220.01 64C219.21 64 218.48 64.01 217.82 64.03C217.16 64.05 216.72 64.07 216.5 64.09L216.95 62.17C217.43 62.09 217.83 61.9 218.15 61.6C218.49 61.3 218.81 60.81 219.11 60.13L226.07 44.92L230.6 44.41L230.9 44.59C231.06 45.71 231.39 48.03 231.89 51.55C232.39 55.05 232.84 57.9 233.24 60.1ZM226.4 55.45C227 55.45 227.72 55.41 228.56 55.33L227.72 48.58H227.3L224.36 55.45H226.4ZM242.951 47.44C242.951 47.84 243.181 48.82 243.641 50.38C244.101 51.94 244.371 52.84 244.451 53.08L244.661 53.77H244.931L247.901 48.61C248.281 47.97 248.471 47.48 248.471 47.14C248.471 46.92 248.371 46.76 248.171 46.66C247.991 46.56 247.651 46.5 247.151 46.48L247.091 46.33L247.511 44.65L248.921 44.71C249.961 44.75 250.761 44.77 251.321 44.77C251.881 44.77 252.471 44.76 253.091 44.74C253.711 44.7 254.111 44.67 254.291 44.65L254.381 44.86L253.961 46.63C253.141 46.87 252.471 47.26 251.951 47.8C251.431 48.32 250.771 49.21 249.971 50.47L246.551 55.81C246.271 56.25 246.071 56.69 245.951 57.13C245.851 57.55 245.721 58.31 245.561 59.41L245.471 60.1C245.431 60.5 245.411 60.77 245.411 60.91C245.411 61.35 245.491 61.66 245.651 61.84C245.831 62 246.141 62.08 246.581 62.08C246.921 62.08 247.221 62.07 247.481 62.05C247.761 62.03 247.941 62.01 248.021 61.99L248.111 62.14L247.631 64.12C247.271 64.1 246.611 64.07 245.651 64.03C244.711 64.01 243.791 64 242.891 64C242.211 64 241.371 64.04 240.371 64.12C239.371 64.22 238.711 64.29 238.391 64.33L238.841 62.38C239.621 62.26 240.201 62.11 240.581 61.93C240.961 61.73 241.231 61.45 241.391 61.09C241.571 60.73 241.701 60.2 241.781 59.5L241.901 58.54C241.941 58.14 241.961 57.87 241.961 57.73C241.961 57.09 241.791 56.32 241.451 55.42L239.321 49.72C238.961 48.7 238.591 47.98 238.211 47.56C237.851 47.12 237.251 46.82 236.411 46.66L236.321 46.51L236.801 44.68C237.081 44.68 237.591 44.7 238.331 44.74C239.071 44.76 239.791 44.77 240.491 44.77C241.111 44.77 241.951 44.74 243.011 44.68C244.091 44.6 244.801 44.55 245.141 44.53L245.261 44.8L244.871 46.45C244.131 46.51 243.621 46.61 243.341 46.75C243.081 46.89 242.951 47.12 242.951 47.44ZM267.713 60.1C267.833 60.82 268.033 61.33 268.313 61.63C268.613 61.93 269.083 62.12 269.723 62.2L269.843 62.38L269.423 64.09C269.163 64.07 268.683 64.05 267.983 64.03C267.303 64.01 266.603 64 265.883 64C264.863 64 263.863 64.03 262.883 64.09C261.903 64.17 261.273 64.22 260.993 64.24L260.873 64L261.203 62.29C262.183 62.21 262.833 62.09 263.153 61.93C263.473 61.75 263.633 61.44 263.633 61C263.633 60.86 263.623 60.72 263.603 60.58C263.583 60.42 263.563 60.27 263.543 60.13L263.243 57.73L260.633 57.7C260.313 57.7 259.373 57.76 257.813 57.88L256.823 60.28C256.623 60.76 256.523 61.13 256.523 61.39C256.523 61.67 256.613 61.88 256.793 62.02C256.993 62.14 257.293 62.2 257.693 62.2H258.983L259.073 62.38L258.683 64.18C258.423 64.16 257.853 64.12 256.973 64.06C256.093 64.02 255.263 64 254.483 64C253.683 64 252.953 64.01 252.293 64.03C251.633 64.05 251.193 64.07 250.973 64.09L251.423 62.17C251.903 62.09 252.303 61.9 252.623 61.6C252.963 61.3 253.283 60.81 253.583 60.13L260.543 44.92L265.073 44.41L265.373 44.59C265.533 45.71 265.863 48.03 266.363 51.55C266.863 55.05 267.313 57.9 267.713 60.1ZM260.873 55.45C261.473 55.45 262.193 55.41 263.033 55.33L262.193 48.58H261.773L258.833 55.45H260.873Z" fill="#15120C"/>
</svg>
